<svg xmlns="http://www.w3.org/2000/svg" viewBox="0 0 900 900" width="900" height="900">
    <g transform="translate(141.0 58.0) rotate(0.0 307.5 404.0) scale(0.9982891110194886 0.998608374962614)">
        <svg width="616.054" height="809.126" viewBox="0 0 616.054 809.126">
            <path
                d="M292.525 770.08c-49.09 12.76-102.77 8.68-106.13-15.13-.04-.26-.07-.52-.09-.78-1.96-20.87 32.8-58.83 83.59-70.14 5.25-1.16 10.36-2.17 15.34-3.02-13.5-14.73-24.87-32.29-33.22-51.63-13.25-30.67-19.08-64.85-17.44-101.92.04-.87.08-1.74.13-2.62.49-9.14 1.43-18.46 2.82-27.95 1.4-9.56 10.28-16.18 19.86-14.77 9.56 1.4 16.17 10.29 14.77 19.85-1.72 11.73-2.64 22.89-2.85 33.46v.01c-1.4 71.22 29.38 116.38 62.75 138.94 4.54 3.07 21.53 11.15 26.87 17.86 4.49 4.55 7.94 10.3 10.18 17.45 7.33 23.49-15.42 44.48-76.58 60.39z"
                fill="#9eb256" />
            <path
                d="M292.525 770.08c-49.09 12.76-114.902 10.569-105.17-24.805 5.138 44.766 143.92 1.174 147.833-33.234 2.718-23.903-24.954-32.619-54.783-78.783-32.87-50.87-13.304-108.928-45.701-108.418.49-9.14 1.43-18.46 2.82-27.95 1.4-9.56 10.28-16.18 19.86-14.77 9.56 1.4 16.17 10.29 14.77 19.85-13.33 90.78 21.57 146.5 59.9 172.41 4.54 3.07 21.53 11.15 26.87 17.86 4.49 4.55 7.94 10.3 10.18 17.45 7.33 23.49-15.42 44.48-76.58 60.39z"
                fill="#647042" />
            <g fill="#670a39">
                <path
                    d="M272.155 501.971c-1.72 11.73-2.68 26.283-2.89 36.853-4.642-13.434-24.73-20.623-34.56-13.983.04-.87-.05.88 0 0 .49-9.14 1.43-18.46 2.82-27.95 1.4-9.56 10.28-16.18 19.86-14.77 9.56 1.4 16.17 10.29 14.77 19.85z" />
                <path
                    d="M269.265 539.823c-.42 0-.804-.266-.945-.673-2.175-6.294-8.343-11.812-16.097-14.399-6.362-2.123-12.535-1.854-16.622.7-.208.582-.671.655-.965.644-.279-.015-.897-.154-.935-1.081h-.008l.006-.103a2.335 2.335 0 0 1 .012-.236l.005-.105h.002c.493-9.063 1.441-18.425 2.817-27.824a18.372 18.372 0 0 1 7.255-12.156 18.374 18.374 0 0 1 13.74-3.458 18.361 18.361 0 0 1 12.152 7.257 18.386 18.386 0 0 1 3.462 13.727c-1.833 12.502-2.689 27.17-2.879 36.728a1.001 1.001 0 0 1-1 .98zm-25.298-18.488c2.821 0 5.843.503 8.889 1.519 6.726 2.244 12.356 6.583 15.525 11.786.327-9.405 1.188-21.922 2.785-32.814a16.394 16.394 0 0 0-3.088-12.243 16.378 16.378 0 0 0-10.838-6.473 16.39 16.39 0 0 0-12.256 3.084 16.383 16.383 0 0 0-6.47 10.842 307.574 307.574 0 0 0-2.706 26.019c2.342-1.142 5.135-1.719 8.159-1.719zm20.837 163.937c15.798.747 36.845 11.372 36.845 11.372s-14.446-13.512-16.414-15.634q-2.183.342-7.615 1.404c-5.432 1.062-12.817 2.858-12.817 2.858z" />
                <path
                    d="M301.648 697.644c-.152 0-.306-.035-.45-.107-.209-.105-21.043-10.538-36.442-11.266a1 1 0 0 1-.189-1.97c.074-.018 7.469-1.814 12.861-2.868q5.45-1.065 7.652-1.41a.992.992 0 0 1 .888.308c1.921 2.072 16.219 15.449 16.364 15.583a1 1 0 0 1-.683 1.73zm-30.951-12.725c9.516 1.578 19.623 5.527 25.732 8.199-4.089-3.846-9.72-9.171-11.554-11.039-1.69.266-2.114.349-7.063 1.316a250.188 250.188 0 0 0-7.115 1.524z" />
                <path
                    d="M239.586 778.127c-19.557 0-36.062-3.322-45.375-9.851-5.392-3.781-8.389-8.494-8.905-14.009-1.016-10.843 7.543-25.973 22.338-39.485 16.721-15.272 38.753-26.538 62.038-31.722a315.09 315.09 0 0 1 15.371-3.042 1 1 0 1 1 .336 1.972 312.2 312.2 0 0 0-15.272 3.022c-50.738 11.297-84.69 49.098-82.819 69.069.459 4.904 3.172 9.129 8.062 12.558 16.684 11.697 57.442 12.736 96.913 2.472 40.545-10.544 65.406-23.641 73.893-38.926 3.519-6.338 4.186-13.132 1.981-20.192-3.362-10.766-10.568-19.853-19.771-24.932a1 1 0 1 1 .967-1.751c9.65 5.325 17.2 14.833 20.714 26.087 2.374 7.603 1.653 14.923-2.142 21.759-8.763 15.783-34.043 29.204-75.138 39.891-18.24 4.744-36.789 7.082-53.19 7.082z" />
                <path
                    d="M303.97 699.525a.995.995 0 0 1-.621-.217c-22.12-17.55-40.189-41.595-52.254-69.536-16.88-39.095-21.778-83.852-14.559-133.027a18.382 18.382 0 0 1 7.257-12.156 18.368 18.368 0 0 1 13.734-3.46 18.384 18.384 0 0 1 12.156 7.261 18.377 18.377 0 0 1 3.461 13.73c-15.819 107.742 36.322 155.781 59.474 171.434 1.212.819 3.425 2.056 5.988 3.487 7.482 4.178 17.729 9.9 21.461 15.04a1 1 0 1 1-1.619 1.174c-3.473-4.783-13.911-10.612-20.817-14.469-2.71-1.513-4.851-2.709-6.133-3.576-15.091-10.203-35.96-29.298-49.686-62.326-13.215-31.799-16.797-69.164-10.646-111.057.64-4.36-.456-8.709-3.087-12.245s-6.481-5.836-10.842-6.477a16.388 16.388 0 0 0-12.25 3.086 16.39 16.39 0 0 0-6.472 10.842c-7.165 48.803-2.315 93.195 14.416 131.944 11.935 27.639 29.799 51.416 51.661 68.762a1 1 0 0 1-.622 1.783z" />
            </g>
            <path
                d="M515.685 792.12c-12.37 19.6-60.96 23.63-104.07-1.75-43.1-25.37-66.39-65.74-52.02-90.15a30.14 30.14 0 0 1 5.48-6.78c.18-.16.36-.33.54-.49.09-.09.2-.17.3-.25-34.56-56.28-48.27-89.94-58.02-148.21-.18-1.08-.36-2.16-.54-3.26-2.18-13.41-4.17-28.13-6.17-44.7-.03-.18-.05-.36-.07-.54l-.03-.32c-.97-9.46 5.83-18 15.32-19.14 6.81-.82 13.16 2.38 16.7 7.73.92 1.39 1.66 2.94 2.14 4.6.29.95.5 1.93.62 2.95 2.27 18.87 4.54 35.17 7.13 49.82 9.56 54.18 23.46 85.77 57.74 140.8 18.86.29 41.33 6.82 62.93 19.54 43.11 25.38 64.95 69.68 52.02 90.15z"
                fill="#9eb256" />
            <path
                d="M515.735 792.031c-.01.03-.03.06-.05.09-12.37 19.6-60.96 23.63-104.07-1.75-43.1-25.37-66.39-65.74-52.02-90.15.68-1.14 4.3-3.99 5.4-5.97.65-1.16 2.39.73 3.19 1.73-.48-.68-1.4-2.02-2.96-4.4 9.98 12.59 31.59 11.07 16.53-17.1-10.8-20.21-28.04-46.99-43.44-105.27-9.13-34.56-27.39-34.82-30.42-24.72-2.42-14.42-4.59-30.35-6.78-48.5l-.03-.32c9.25-3.92 21.11-8.29 32.02-11.41 1.45 2.19 2.43 4.75 2.76 7.55 10.67 88.64 21.32 120.71 64.87 190.62 2.85.04 5.79.23 8.8.56 16.84 1.85 35.8 8.19 54.13 18.98 43.05 25.34 64.89 69.55 52.07 90.06z"
                fill="#647042" />
            <path
                d="M515.735 792.031c-.02-.38 0-.79.05-1.21 1.9-14.61-5.553-40.953-29.292-64.171-20.398-19.949-45.652-34.435-76.958-43.659 16.84 1.85 35.8 8.19 54.13 18.98 43.05 25.34 64.89 69.55 52.07 90.06z"
                fill="#9eb256" />
            <path
                d="M473.675 809.126c-20.768 0-42.921-6.325-62.562-17.889-20.993-12.36-38.012-28.625-47.922-45.8-10.013-17.353-11.594-33.59-4.452-45.721a31.18 31.18 0 0 1 6.209-7.513 1.001 1.001 0 0 1 1.327 1.496 29.21 29.21 0 0 0-5.813 7.032c-6.761 11.483-5.177 27.004 4.461 43.707 9.74 16.88 26.505 32.889 47.204 45.076 42.009 24.733 90.541 21.36 102.716 2.077 3.81-6.035 4.567-14.412 2.189-24.225-5.635-23.252-26.78-48.582-53.87-64.532-20.752-12.219-42.93-19.112-62.448-19.409a1 1 0 0 1 .03-2c19.859.303 42.386 7.294 63.432 19.686 27.533 16.211 49.043 42.033 54.8 65.784 2.509 10.352 1.664 19.26-2.441 25.763-6.321 10.013-21.776 16.165-41.341 16.458-.505.008-1.012.011-1.518.011zM342.995 541.63c-7.46-10.37-28.55-8.81-35.39 0 0 0-.09-.14-.25-.4-2.18-13.41-4.17-28.13-6.17-44.7 11.07-3.58 25.15-7.17 34.06-7.67.29.95.5 1.93.62 2.95 2.27 18.87 4.54 35.17 7.13 49.82z"
                fill="#670a39" />
            <path
                d="M342.995 542.63a.998.998 0 0 1-.812-.416c-3.01-4.183-8.737-6.656-15.715-6.783-7.544-.144-14.803 2.6-18.073 6.813a1 1 0 0 1-1.631-.072s-.094-.146-.261-.417a1.01 1.01 0 0 1-.135-.363c-2.055-12.64-4.017-26.856-6.176-44.741a1 1 0 0 1 .685-1.071c10.476-3.388 24.99-7.194 34.312-7.717.46-.022.878.266 1.012.707a17.93 17.93 0 0 1 .657 3.125c2.435 20.239 4.698 36.052 7.122 49.762a1.002 1.002 0 0 1-.984 1.175zm-40.718-45.4c2.032 16.779 3.893 30.309 5.825 42.354 4.03-3.915 11.004-6.294 18.403-6.153 6.085.111 11.334 1.906 14.923 5.021-2.213-12.968-4.312-27.871-6.556-46.522a15.885 15.885 0 0 0-.372-2.019c-8.915.659-22.241 4.133-32.223 7.319z"
                fill="#670a39" />
            <path
                d="M375.494 709.128a1 1 0 0 1-.844-.462c-25.328-39.729-42.129-68.922-53.054-100.576-10.373-30.055-15.369-61.29-21.471-111.978-1.218-10.128 6.029-19.359 16.156-20.579 4.907-.592 9.75.763 13.637 3.815a18.38 18.38 0 0 1 6.942 12.34c11.213 93.146 22.206 123.674 73.519 204.162a1 1 0 1 1-1.687 1.075c-51.521-80.814-62.56-111.468-73.818-204.998-.527-4.376-2.726-8.285-6.192-11.007s-7.786-3.928-12.163-3.403c-9.032 1.087-15.497 9.321-14.41 18.354 11.825 98.223 18.956 125.024 74.226 211.718a1 1 0 0 1-.843 1.538z"
                fill="#670a39" />
            <path d="M409.536 696.389s-1.761-10.957 3.363-12.978c-3.346-.76-12.164-.98-12.164-.98z"
                fill="#670a39" />
            <path
                d="M409.536 697.389a1 1 0 0 1-.846-.467l-8.801-13.958c-.197-.312-.206-.707-.024-1.027s.526-.522.895-.505c.364.009 8.957.231 12.361 1.005a1 1 0 0 1 .146 1.905c-3.583 1.413-3.195 9.062-2.743 11.889a1 1 0 0 1-.988 1.158zm-6.948-13.895 5.657 8.971c-.013-2.763.381-6.284 2.172-8.435-2.501-.291-5.793-.456-7.829-.537z"
                fill="#670a39" />
            <path
                d="M370.43 725.345c.397-14.749 17.713-16.205 27.889-4.174 11.915 14.087 27.035 30.883 44.41 39.13 29.677 14.087 47.27 13.858 49.959 22.565 4.402 14.258-22.5 27.783-66.321 5.609-42.002-21.253-56.386-46.435-55.937-63.13z"
                fill="#9eb256" />
            <path
                d="M569.995 264.751c0 140.67-114.04 254.71-254.71 254.71-59.12 0-113.53-20.14-156.76-53.93a257.23 257.23 0 0 1-28.17-25.63c-43.24-45.65-69.77-107.3-69.77-175.15 0-6.16.22-12.26.65-18.31 4.86-68.43 36.75-129.4 85.07-172.28 44.96-39.891 104.14-64.121 168.98-64.121 7.16 0 14.24.3 21.25.88 32.27 2.66 62.84 11.34 90.57 24.92h.01c84.61 41.41 142.88 128.36 142.88 228.91z"
                fill="#82b3fb" />
            <path
                d="M315.285 520.46c-57.64 0-112.06-18.722-157.376-54.142a259.198 259.198 0 0 1-28.28-25.73C84.46 392.902 59.585 330.455 59.585 264.75c0-6.105.22-12.289.653-18.381 4.75-66.875 35.08-128.299 85.404-172.957C192.428 31.901 252.675 9.04 315.285 9.04c7.07 0 14.248.297 21.333.884 31.758 2.618 62.326 11.023 90.854 24.983a.867.867 0 0 1 .083.036c42.368 20.736 78.183 52.77 103.573 92.639 26.082 40.955 39.868 88.388 39.868 137.169 0 68.301-26.599 132.516-74.897 180.813-48.298 48.298-112.512 74.896-180.813 74.896zm0-509.42c-62.12 0-121.896 22.682-168.316 63.868-49.931 44.309-80.024 105.252-84.736 171.603a258.168 258.168 0 0 0-.647 18.239c0 65.191 24.681 127.149 69.496 174.462a257.02 257.02 0 0 0 28.06 25.53c44.96 35.142 98.954 53.717 156.144 53.717 139.896 0 253.71-113.814 253.71-253.71 0-97.648-54.508-184.998-142.247-227.976a.858.858 0 0 1-.083-.035c-28.324-13.871-58.676-22.222-90.212-24.822a257.68 257.68 0 0 0-21.168-.877z"
                fill="#670a39" />
            <path
                d="M308.971 228.858c-13.34 73.41-62.115 109.879-138.396 101.013-39.515-4.593-104.934-49.14-107.79-98.687-.08-6.27-1.64 24.337-1.55 15.257 3.16-44.44 17.71-85.73 40.77-120.97a255.3 255.3 0 0 1 25.73-33.06c5.88-6.39 12.07-12.49 18.57-18.25 21.97-7.44 46.23-9.56 70.86-5.08 3.85.7 7.663 1.431 11.34 2.53 66.616 19.911 93.136 87.567 80.466 157.247z"
                fill="#b5dcfa" />
            <path
                d="M73.977 273.189c10.777 9.721 13.418 19.105 18.884 32.931s27.7 26.69 45.893 30.008c11.187 2.04-40.909 6.003-40.909 6.003s-22.222-29.188-22.483-31.161-1.386-37.781-1.386-37.781zm496.018-8.438c0 87.07-43.69 163.93-110.34 209.87-6.18 4.26-12.55 8.25-19.11 11.95-36.99 20.94-79.73 32.89-125.26 32.89-72.82 0-138.51-30.56-184.93-79.56 176.39 59.84 292.08-54.47 306.19-189.87 1.94-18.71 1.95-37.84-.09-56.96-7.09-66.37-38.9-132.74-99.92-182.15 130.73 10.79 233.46 120.32 233.46 253.83z"
                fill="#517fb6" />
            <path
                d="M132.755 342.13c6.79 4.07 13.51 7.67 20.17 10.78l-8.57 3.93c-4.04-4.49-7.91-9.38-11.6-14.71zm207.76 12.06c-34.79 35.59-95.58 55.86-148.33 35.87 3.02-7.97.14-17.05-6.57-25.86 34.14 7.48 68.42.98 107.31-22.07 58.38-34.6 63.61-45.09 66.85-96.13 2.02-31.86 30.35-23.85 30.73-1.84.46 26.72-3.12 62.08-49.99 110.03z"
                fill="#b5dcfa" />
            <path
                d="M192.185 390.06c-17.19-6.51-33.53-17.29-47.83-33.22l8.57-3.93h.01c10.97 5.13 21.82 8.91 32.68 11.29 6.71 8.81 9.59 17.89 6.57 25.86z"
                fill="#82b3fb" />
            <path
                d="M185.615 364.2c-10.86-2.38-21.71-6.16-32.68-11.29l13.73-6.29c7.72 5.4 14.28 11.42 18.95 17.58zm6.57 25.86c-.14.39-.3.77-.47 1.15-6.27 13.75-18.79 15.82-16.96 26.02 1.82 10.2 5.42 47.14-4.73 52.41-10.14 5.27-33.11-54.88-34.67-56.37s-10.24-47.61-10.24-47.61l19.24-8.82c14.3 15.93 30.64 26.71 47.83 33.22zm182.469 3.068c-29.06-12.934-23.422-76.522 8.274-75.044s38.753 16.88 43.442 24.049-13.032 68.212-51.715 50.995z"
                fill="#517fb6" />
            <path
                d="M569.995 264.751c0 140.67-114.04 254.71-254.71 254.71-59.12 0-113.53-20.14-156.76-53.93 1.79.42 3.738.496 5.44 1.3C512.706 631.432 701.449 226.939 427.105 35.84h.01c84.61 41.41 142.88 128.36 142.88 228.91z"
                fill="#82b3fb" />
            <path
                d="M315.287 520.455c-68.302 0-132.516-26.598-180.812-74.895C86.178 397.264 59.58 333.05 59.58 264.748s26.598-132.516 74.895-180.813C182.772 35.639 246.986 9.041 315.287 9.041S447.803 35.639 496.1 83.936s74.895 112.511 74.895 180.813-26.598 132.516-74.895 180.812c-48.297 48.297-112.511 74.895-180.813 74.895zm0-509.415C175.392 11.04 61.58 124.853 61.58 264.748s113.813 253.707 253.707 253.707 253.707-113.813 253.707-253.707S455.182 11.041 315.287 11.041z"
                fill="#670a39" />
            <path
                d="M329.958 171.748c-.194-8.556-22.5-39.393-35.921-51.099-4.79-4.177 5.543 8.217-1.107 5.652-9.423-3.635-19.854-7.908-32.563-9.391-1.064-.124-1.514 1.3-.574 1.813 46.429 25.373 64.048 112.013 24.068 176.146 31.43-21.68 47.754-50.088 46.097-123.121zm-193.025-71.721a1.263 1.263 0 0 1-.364-2.198c5.273-4.046 22.17-15.282 48.287-16.279 26.872-1.026 47.309 15.483 53.09 20.72.748.678.435 1.913-.543 2.161-6.272 1.584-25.555 5.71-52.364 4.521-23.04-1.021-41.938-6.826-48.105-8.925z"
                fill="#82b3fb" />
            <path
                d="M495.235 76.17c.09 1.2-1.71 1.69-4.59 1.8-10.28.45-34.45-3.74-36.89 3.29-3.13 9 14.87 12.13 13.3 19.17-.67 3-19.39 5.92-41.52 7.78-4.16.34-8.43.65-12.73.92-26.74 1.67-54.38 1.65-59.62-1.65-1.61-1.01-2.4-2.04-2.51-3.07-.8-7.07 29.85-14.64 47.75-22.18.5-.21.99-.42 1.47-.63 7.44-3.27 12.25-6.53 10.82-9.73-2.17-4.87-10.06-8.26-22.23-10.36-.53-.09-1.07-.18-1.62-.27-.53-.09-1.06-.17-1.6-.25-14.02-2.05-32.95-2.61-54.93-1.91-38.03 1.22-59.06 7.05-72.58 13.74-11.31 5.6-21.44 13.39-35.65 10-12.94-3.08-14.04-12.28-16.83-19.17-6.65-16.44-30.52-3.22-40.3-7.68-1.61-.73-1.26-2.68.86-5.42 9.74-12.58 56.74-41.96 122.22-48.31 6.91-.67 14.02-1.09 21.31-1.2 2.96-.05 5.88-.05 8.76-.02 7.8.08 15.31.44 22.55 1.04 106.38 8.76 154.2 69.1 154.56 74.11z"
                fill="#fff8ea" />
            <path
                d="M380.699 111.227c-13.469 0-24.677-.778-28.047-2.9-1.823-1.144-2.824-2.426-2.971-3.81-.608-5.372 11.03-9.827 30.269-16.525 6.296-2.192 12.805-4.458 18.087-6.683.496-.208.982-.417 1.457-.625 6.107-2.684 9.583-5.027 10.33-6.961.197-.511.19-.97-.022-1.444-1.919-4.306-9.349-7.688-21.487-9.782a337.18 337.18 0 0 0-1.611-.269 74.693 74.693 0 0 0-1.585-.248c-13.577-1.985-31.998-2.624-54.752-1.9-32.099 1.03-55.705 5.49-72.168 13.637-1.957.969-3.914 2.023-5.806 3.042-9.054 4.878-18.416 9.923-30.52 7.034-11.509-2.739-14.077-10.076-16.342-16.549-.395-1.129-.769-2.196-1.183-3.219-3.925-9.704-14.321-8.304-24.375-6.951-5.951.801-11.572 1.557-15.413-.194-.792-.359-1.315-.962-1.508-1.742-.332-1.338.32-3.039 1.992-5.2 10.399-13.431 58.604-42.457 122.914-48.693A264.06 264.06 0 0 1 309.349.04c2.747-.046 5.621-.053 8.786-.02a314.47 314.47 0 0 1 22.622 1.043c56.011 4.612 94.817 23.55 117.508 38.625 25.944 17.236 37.755 33.566 37.966 36.407a1.975 1.975 0 0 1-.509 1.495c-.759.85-2.313 1.275-5.04 1.379-2.899.127-6.886-.109-11.108-.36-9.859-.585-23.362-1.385-24.876 2.978-1.342 3.858 1.754 6.399 6.631 9.836 3.721 2.622 7.568 5.333 6.7 9.224-.309 1.382-2.156 3.067-13.514 5.084-7.309 1.298-17.302 2.5-28.899 3.475-4.228.345-8.517.656-12.751.921-10.393.649-21.934 1.098-32.168 1.098zM347.59 57.791c15.087 0 27.759.739 37.819 2.21.549.081 1.086.162 1.623.254.546.089 1.088.179 1.62.27 13.012 2.245 20.742 5.925 22.976 10.939.431.965.452 1.967.062 2.979-.972 2.519-4.592 5.084-11.393 8.073-.486.212-.98.424-1.485.636-5.34 2.249-11.88 4.526-18.206 6.728-13.103 4.562-29.411 10.239-28.938 14.417.079.739.787 1.544 2.048 2.335 4.411 2.778 28.683 3.395 59.026 1.499 4.221-.265 8.498-.574 12.711-.918 28.565-2.401 39.95-5.516 40.632-7.023.571-2.567-2.576-4.784-5.907-7.131-4.362-3.074-9.305-6.557-7.368-12.127 2.011-5.793 15.225-5.01 26.884-4.319 4.168.247 8.105.481 10.907.358 3.185-.122 3.621-.697 3.642-.728h-.005c-.439-4.171-47.405-64.438-153.645-73.187-7.368-.61-14.93-.959-22.478-1.037a317.583 317.583 0 0 0-8.733.02c-6.997.106-14.139.508-21.23 1.196-63.711 6.178-111.306 34.727-121.526 47.927-1.756 2.27-1.694 3.248-1.633 3.494.031.125.102.27.395.403 3.319 1.514 8.662.795 14.319.033 10.307-1.388 21.988-2.96 26.495 8.183.432 1.066.813 2.156 1.216 3.308 2.198 6.282 4.472 12.777 14.918 15.264 11.362 2.711 19.982-1.933 29.107-6.849 1.907-1.027 3.88-2.09 5.867-3.074 16.725-8.276 40.601-12.804 72.992-13.843 6.07-.193 11.838-.29 17.287-.29z"
                fill="#670a39" />
            <path
                d="M495.235 76.17c.39 5.48-38.35-3.91-41.48 5.09s14.87 12.13 13.3 19.17c-.79 3.56-27.05 7.01-54.25 8.7-3.44-9.37-7.85-18.62-12.91-27.53 7.44-3.27 12.25-6.53 10.82-9.73-2.26-5.08-10.76-8.55-23.85-10.63-23.97-33.62-54.38-58.62-68.89-60.07l.15-.15c7.8.08 15.31.44 22.55 1.04 106.38 8.76 154.2 69.1 154.56 74.11z"
                fill="#e7dcdc" />
            <path
                d="M388.485 61.511c-.53-.09-1.07-.18-1.62-.27-.53-.09-1.06-.17-1.6-.25-14.02-2.05-32.95-2.61-54.93-1.91-38.03 1.22-59.06 7.05-72.58 13.74-11.31 5.6-21.44 13.39-35.65 10-12.94-3.08-14.04-12.28-16.83-19.17-6.65-16.44-30.52-3.22-40.3-7.68-1.61-.73-1.26-2.68.86-5.42l.17.4c5.626 5.978 21.266-1.522 29.62-1.52 9.129.002 15.591 9.214 19.501 19.294 3.91 10.07 20.686 10.069 29.666 3.925 14.489-9.913 44.299-16.815 71.864-19.099 27.664-2.292 57.14-1.7 73.58 1.52 9.37 1.84 4.32 4.5-1.75 6.44zm37.05 46.699c-4.16.34-8.43.65-12.73.92-26.74 1.67-54.38 1.65-59.62-1.65-1.61-1.01-2.4-2.04-2.51-3.07l1.84-2.97c1.978 8.782 55.46 2.71 67.72 0 4.76-1.05 5.81 2.29 5.3 6.77z"
                fill="#e7dcdc" />
            <path
                d="M495.235 76.17c.09 1.2-1.71 1.69-4.59 1.8-7.739-18.821-55.807-47.815-96.5-60.625C346.148 2.235 289.015 6.71 289.015 6.71l-.96-4.47c6.91-.67 14.02-1.09 21.31-1.2 2.96-.05 5.88-.05 8.76-.02 7.8.08 15.31.44 22.55 1.04 106.38 8.76 154.2 69.1 154.56 74.11z"
                fill="#fff8ea" />
            <path
                d="M381.622 111.233c-14.113 0-25.225-.852-28.494-2.911-2.166-1.364-3.168-2.906-2.977-4.584.577-5.062 11.82-9.326 30.268-15.748 13.077-4.552 27.899-9.712 29.83-14.169.238-.551.245-1.042.02-1.548-4.161-9.364-32.37-13.692-79.426-12.189-32.108 1.026-55.715 5.486-72.17 13.635-1.956.969-3.912 2.023-5.804 3.042-9.054 4.879-18.417 9.924-30.527 7.035-11.51-2.745-14.075-10.08-16.338-16.551-.395-1.13-.769-2.197-1.183-3.22-3.927-9.701-14.324-8.302-24.379-6.947-5.95.801-11.571 1.558-15.413-.192-1.264-.576-1.813-1.745-1.507-3.208 1.251-5.984 17.558-19.058 42.683-30.578C228.308 12.964 264.226.736 309.819.041c67.412-1.027 114.13 18.423 141.451 34.921 30.566 18.458 45.193 37.802 45.432 41.138a1.985 1.985 0 0 1-.589 1.575c-1.688 1.708-6.923 1.483-16.031.94-9.872-.589-23.392-1.396-24.911 2.972-1.342 3.857 1.755 6.399 6.632 9.836 3.721 2.622 7.569 5.334 6.704 9.226-.203.916-1.106 1.679-2.841 2.402-10.343 4.314-53.988 8.18-84.044 8.181zm-33.58-53.437c29.434 0 59.225 2.801 64.054 13.666.455 1.024.451 2.085-.013 3.155-2.279 5.261-16.234 10.119-31.007 15.262-13.341 4.644-28.462 9.908-28.938 14.086-.097.849.595 1.745 2.055 2.665 9.078 5.715 88.448 1.315 108.557-4.679 3.441-1.026 3.797-1.729 3.811-1.759.569-2.568-2.579-4.786-5.911-7.134-4.362-3.074-9.306-6.558-7.369-12.128 2.016-5.798 15.246-5.008 26.919-4.312 5.506.328 13.827.825 14.511-.375-.556-5.251-57.283-76.126-184.862-74.202l-.015-1 .015 1c-45.245.69-80.882 12.821-102.811 22.876-25.591 11.734-40.579 24.48-41.559 29.17-.142.681.087.846.378.979 3.318 1.511 8.661.792 14.318.03 10.307-1.388 21.99-2.961 26.499 8.179.432 1.068.813 2.157 1.216 3.311 2.197 6.28 4.468 12.774 14.915 15.266 11.368 2.711 19.988-1.933 29.114-6.85 1.907-1.027 3.878-2.09 5.865-3.074 16.717-8.279 40.594-12.807 72.994-13.842a543.794 543.794 0 0 1 17.264-.289z"
                fill="#670a39" />
            <path
                d="M371.255 75.64c-.01 0-.01.01-.02.02-.2.18-.43.34-.71.5-6.93 4.1-37.99 5.28-46.91 19.7-9.37 15.17-35.94 14.58-45.24 10.22-3.48-1.63-5.77-4.33-6.71-7.42v-.01c-.35-1.15-.51-2.35-.46-3.58v-.03c0-.01 0-.02.01-.04.15-4.26 2.74-8.74 8.14-11.92 15.58-9.2 81.09-18.28 90.76-11.06 2.01 1.5 2.22 2.65 1.14 3.62z"
                fill="#fff8ea" />
            <path
                d="M293.695 109.708c-6.478 0-12.297-1.107-15.744-2.722-3.608-1.69-6.18-4.543-7.242-8.034-.008-.025-.014-.051-.02-.076a11.754 11.754 0 0 1-.482-3.845.888.888 0 0 1 .012-.119c.196-4.953 3.339-9.576 8.63-12.692 15.682-9.26 81.684-18.601 91.866-11 1.443 1.077 2.137 2.06 2.184 3.094.024.525-.126 1.31-.974 2.072l-.013.012c-.28.25-.552.44-.889.633-2.29 1.355-6.767 2.341-12.436 3.59-11.905 2.622-28.21 6.214-34.12 15.768-6.141 9.943-19.457 13.321-30.771 13.322zM272.641 98.43c.906 2.914 3.091 5.308 6.159 6.744 8.974 4.208 34.89 4.853 43.965-9.84 6.355-10.274 23.137-13.97 35.391-16.669 5.276-1.162 9.833-2.166 11.861-3.366.218-.125.38-.235.515-.351.024-.024.049-.047.075-.069.201-.185.3-.345.294-.477-.006-.134-.124-.642-1.383-1.582-8.769-6.548-73.286 1.455-89.653 11.12-4.711 2.774-7.498 6.818-7.649 11.094a.983.983 0 0 1-.014.133 9.881 9.881 0 0 0 .421 3.19l.019.071z"
                fill="#670a39" />
            <path
                d="M228.607 49.432c-2.723-6.261 6.588-13.178 23.545-17.541 16.957-4.362 33.733-7.764 31.709 3.949-1.605 9.288-55.254 13.592-55.254 13.592zm64.321-19.141c-4.174-6.424 12.873-13.532 15.958-2.152zm78.327 45.349c-.01 0-.01.01-.02.02-.23.16-.47.33-.71.5-6.93 4.1-37.99 5.28-46.91 19.7-9.37 15.17-35.94 14.58-45.24 10.22-3.48-1.63-5.77-4.33-6.71-7.42v-.01c-.25-1.88-.42-3.23-.46-3.58v-.03c-.01-.04-.01-.06-.01-.06l.02.02c8.18 8.17 37.808 8.857 44.075.311 8.609-11.739 27.315-25.641 55.965-19.671z"
                fill="#e7dcdc" />
            <path
                d="M293.695 109.708c-6.478 0-12.297-1.107-15.744-2.722-3.608-1.69-6.18-4.543-7.242-8.034-.008-.025-.014-.051-.02-.076a11.754 11.754 0 0 1-.482-3.845.888.888 0 0 1 .012-.119c.196-4.953 3.339-9.576 8.63-12.692 15.682-9.26 81.684-18.601 91.866-11 1.443 1.077 2.137 2.06 2.184 3.094.024.525-.126 1.31-.974 2.072l-.013.012c-.28.25-.552.44-.889.633-2.29 1.355-6.767 2.341-12.436 3.59-11.905 2.622-28.21 6.214-34.12 15.768-6.141 9.943-19.457 13.321-30.771 13.322zM272.641 98.43c.906 2.914 3.091 5.308 6.159 6.744 8.974 4.208 34.89 4.853 43.965-9.84 6.355-10.274 23.137-13.97 35.391-16.669 5.276-1.162 9.833-2.166 11.861-3.366.218-.125.38-.235.515-.351.024-.024.049-.047.075-.069.201-.185.3-.345.294-.477-.006-.134-.124-.642-1.383-1.582-8.769-6.548-73.286 1.455-89.653 11.12-4.711 2.774-7.498 6.818-7.649 11.094a.983.983 0 0 1-.014.133 9.881 9.881 0 0 0 .421 3.19l.019.071z"
                fill="#670a39" />
            <path
                d="M228.916 50.714c-4.696-7.565 45.527-22.636 54.05-16.696 8.609 6-47.603 27.082-54.05 16.696z"
                fill="#82b3fb" />
            <path
                d="M237.305 54.558c-4.772 0-7.868-1.108-9.239-3.317-.662-1.066-.946-2.815 1.457-5.094 8.686-8.236 46.26-18.354 54.014-12.949 1.064.742 1.509 1.782 1.252 2.929-1.296 5.778-23.616 14.986-39.33 17.642-3.111.526-5.831.788-8.154.788zm38.821-20.963c-12.913 0-38.833 7.942-45.226 14.004-1.145 1.085-1.526 1.956-1.134 2.588 1.502 2.42 7.1 3.007 15.36 1.611 16.773-2.835 36.795-12.021 37.712-16.108.039-.175.105-.469-.444-.851-1.239-.864-3.443-1.244-6.268-1.244z"
                fill="#670a39" />
            <path
                d="M436.545 250.031c-.87.14-1.79.29-2.75.46-18.44 3.29-45.25-15.39-52.42-46.22h2.3s26.9-5.92 52.78-11.2c2.04 19.12 2.03 38.25.09 56.96z"
                fill="#517fb6" />
            <path
                d="M535.365 342.13c-8.15-10.69-12.74-46.44-11.96-53.19.78-6.76-3.67-14.34-12.91-18.06-9.24-3.73-9.16-14.15-14.68-15.1-10.37-1.79-20.63 6.69-30.07 1.17-10.58-6.19-13.23-9.42-29.2-6.92 1.94-18.71 1.95-37.84-.09-56.96 21.36-4.36 42.01-8.3 46.26-8.12 9.39.39 68.86 73.96 72.15 107.06 3.28 33.11-11.35 60.81-19.5 50.12z"
                fill="#386393" />
            <path
                d="M294.493 32.664c-3.77-3.095 4.964-9.091 11.543-5.515 9 4.891-5.674 10.334-11.543 5.515z"
                fill="#82b3fb" />
            <path
                d="M300.68 35.528c-2.519 0-5.041-.629-6.821-2.091-1.462-1.201-1.681-2.971-.571-4.619 1.957-2.906 8.082-5.344 13.226-2.547 2.295 1.247 3.429 2.676 3.37 4.247-.057 1.516-1.259 2.878-3.384 3.835-1.656.746-3.737 1.176-5.82 1.176zm.915-8.468c-2.885 0-5.607 1.329-6.648 2.875-.695 1.032-.268 1.588.181 1.957 2.618 2.149 7.515 2.004 10.551.637 1.335-.601 2.181-1.4 2.206-2.086.027-.717-.821-1.596-2.326-2.415-1.255-.682-2.627-.968-3.964-.968z"
                fill="#670a39" />
            <path
                d="M561.515 344.07c-.71 1.36-1.41 2.59-2.11 3.67-2.62 4.07-5.34 5.24-7.97 4.48-6.81-1.98-13.11-16.91-16.07-28.21V324c-.62-2.33-1.09-4.51-1.39-6.39-2.35-14.48.39-41.87-9-46.57-3.65-1.82-7.22-4.62-10.43-7.6-5.06-4.69-9.21-9.85-11.32-12.42-2.03-2.47-4.19-3.51-6.57-3.78-8.16-.94-18.91 7.12-36-3.11-10.19-6.11-16.54-3.02-24.48-1.32-7.17 1.54-15.63 1.94-29.37-6.6-11.87-7.38-19.45-17.38-23.13-26.94-1.39-3.61-2.23-7.17-2.53-10.49-.85-9.33 2.52-16.85 9.61-18.91 14.87-4.31 14.87-11.35 22.69-21.53 4.58-5.95 9.67-9.77 14.4-12.03 1.19-.58 2.36-1.05 3.49-1.44 5.81-1.99 10.65-1.64 12.64-.24 3.91 2.76 12.91 7.85 18.78 3.93 5.87-3.91 10.96-7.04 9.78-14.48-1.17-7.43 10.18-8.21 15.26-9 5.09-.78 7.2-10.98 11.3-16.32.43-.56.88-1.09 1.36-1.58 1.92-2.03 4.1-3.48 6.28-4.42 2.09-.9 4.19-1.32 6.06-1.32 8.66 0 41.68 42.16 55.61 101.9 15.43 66.17 3.96 119.83-6.89 140.73zm-394.85 82.32c1.55 5.76 2.04 10.51 1.8 14.43-.38 6.35-2.68 10.54-5.5 13.41-2.28 2.32-4.9 3.76-7.15 4.79-.51.22-1 .43-1.46.62-4.05 1.67-16.85-1.83-34.16-20-8.1-8.51-17.19-20.24-26.82-36.16-1.6-2.64-3.22-5.4-4.84-8.28-1.86-3.27-3.73-6.7-5.61-10.29-9.48-18.08-15.85-34.84-19.93-49.62-.23-.84-.45-1.66-.67-2.48-9.06-34.39-5.63-57.56-.53-60.96.34-.23.69-.37 1.05-.42.43-.06.86-.11 1.27-.15.57-.06 1.12-.11 1.66-.15 10.83-.79 11.866 2.738 14.066 8.718.01.05.414.882.414.882.47 1.26 1.336 2.911 1.636 4.362 1.85 9.08 3.774 20.498 9.814 31.788 12 22.43 64.01-2.14 88.26 49.19.54 1.15 1.03 2.25 1.46 3.31 13.33 32.71-22.53 28.12-14.76 57.01z"
                fill="#9eb256" />
            <path
                d="M424.405 499.43c-7.3 8.87-50.66 33.07-118.49 28.89-67.82-4.17-103.91-28.53-108.99-34.63-2.53-3.04 1.29-5.9 8.75-7.56 9.53-2.13 25.01-2.31 40.82 1.56 28.56 7 23.29-3.51 40.43-9.07 12.26-3.97 30.48 1.81 35.74 7.51 8.69 9.39 12.52 16.52 50.09 10.69 20.65-3.2 38.01-5.68 47-4.91 6.41.56 8.57 2.76 4.65 7.52z"
                fill="#d1c7dd" />
            <path
                d="M321.375 529.8c-5.021 0-10.196-.154-15.522-.482-64.785-3.983-103.078-27.04-109.697-34.988-1.202-1.444-1.115-2.74-.831-3.573 1.022-2.995 6.074-4.7 10.133-5.603 8.815-1.97 24.287-2.593 41.275 1.565 18.481 4.529 22.369 1.601 27.75-2.454 2.907-2.19 6.202-4.672 12.133-6.596 12.581-4.075 31.258 1.795 36.783 7.783.506.547.997 1.087 1.479 1.618 7.749 8.533 12.867 14.172 47.723 8.762 20.384-3.158 38.008-5.708 47.239-4.918 4.193.367 6.504 1.39 7.272 3.222.67 1.596.036 3.536-1.935 5.93-6.776 8.233-44.408 29.734-103.802 29.734zm-99.997-44.18c-6.216 0-11.538.604-15.485 1.486-5.752 1.28-8.253 3.059-8.675 4.297-.112.328-.184.855.476 1.647 3.987 4.787 38.847 30.002 108.283 34.271 67.566 4.161 110.474-19.8 117.656-28.527 1.415-1.719 1.981-3.063 1.635-3.886-.246-.587-1.301-1.627-5.6-2.003-9.008-.771-26.506 1.764-46.76 4.902-35.918 5.574-41.62-.705-49.51-9.394-.478-.526-.964-1.062-1.467-1.605-5.064-5.488-22.999-11.025-34.698-7.238-5.613 1.821-8.765 4.196-11.547 6.292-5.821 4.385-10.027 7.554-29.43 2.798-9.004-2.204-17.561-3.041-24.879-3.041z"
                fill="#670a39" />
            <path
                d="M419.755 491.91c-25.79 21.86-58.349 32.304-118.76 27.15-55.928-4.772-94.15-24.58-95.35-32.91 0 0 .01-.01.03-.02 9.53-2.13 25.01-2.31 40.82 1.56 28.56 7 23.29-3.51 40.43-9.07 12.26-3.97 30.48 1.81 35.74 7.51 8.69 9.39 12.52 16.52 50.09 10.69 20.65-3.2 38.01-5.68 47-4.91z"
                fill="#b7b7d6" />
            <path
                d="M321.435 529.801c-5.016 0-10.179-.153-15.5-.48-64.794-3.987-103.08-27.041-109.696-34.987-1.171-1.407-1.331-2.958-.45-4.369 3.841-6.147 28.139-8.851 51.021-3.242 18.483 4.529 22.373 1.6 27.755-2.454 2.907-2.19 6.202-4.672 12.134-6.595 12.568-4.075 31.248 1.79 36.782 7.776.505.546.993 1.084 1.473 1.613 7.749 8.54 12.868 14.18 47.726 8.773 35.269-5.47 51.485-7.065 54.343-2.05.938 1.646.361 3.702-1.765 6.283-6.779 8.232-44.429 29.733-103.823 29.733zm-123.659-36.747c3.985 4.786 38.836 29.997 108.282 34.271 67.558 4.155 110.471-19.802 117.656-28.528 1.041-1.265 2.159-2.989 1.571-4.021-2.656-4.664-31.348-.213-52.298 3.037-35.922 5.572-41.624-.71-49.514-9.406-.476-.524-.96-1.058-1.461-1.6-5.071-5.484-23.009-11.018-34.697-7.231-5.613 1.82-8.766 4.194-11.547 6.29-5.822 4.386-10.029 7.555-29.434 2.799-24.142-5.916-46.122-2.006-48.849 2.36-.279.447-.498 1.081.291 2.029z"
                fill="#670a39" />
            <path
                d="M319.025 150.389c-9.064-37.609 9.725-46.435 25.93-3.913 10.55 27.683 4.587 84.774-22.411 118.25-1.338 1.659-4.001.364-3.519-1.712 11.919-51.308 5.257-90.817 0-112.625zm40.911.918c-1.6-14.147 9.015-23.176 13.03-6.523 3.532 14.649.341 23.964-2.268 29.031-.59 1.146-1.672 1.249-2.43.264-3.73-4.845-7.425-14.757-8.331-22.772z"
                fill="#b5dcfa" />
            <path
                d="M426.925 389.159a2.894 2.894 0 0 0 2.18.478c5.22-.934 25.877-5.279 28.432-15.902 2.465-10.249-17.467-14.089-23.914-7.781-.224.219-.589.133-.724-.15-4.121-8.622-23.257-17.764-28.238-6.478-4.543 10.294 17.3 26.356 22.263 29.833z"
                fill="#82b3fb" />
            <path
                d="M427.845 146.31c1.19-.58 2.36-1.05 3.49-1.44-.6 2.06-1.24 4.12-1.87 6.1-.52-1.54-1.06-3.09-1.62-4.66zm131.56 201.431c-9.41 14.59-19.93-8.06-24.04-23.73v-.01c9.87-14.02 22.19-49.25 22.54-70.01.45-26.84-8.28-51.43-15.62-49.63-7.35 1.79-5.97 16.98-4.78 24.5.92 5.88-11.69 25.32-22.96 34.58-5.06-4.69-9.21-9.85-11.32-12.42-2.03-2.47-4.19-3.51-6.57-3.78-.73-19.7-11.04-42.49-18.2-42.88-10.12-.56-17.27-.23-19.95-5.4-2.69-5.16 1.9-22.22 11.96-24.21 10.06-1.98 32.2-24.62 42.88-38.95 9.4-12.63-1.2-24.08-12.89-28.62 3.75-3.97 8.52-5.74 12.34-5.74 8.66 0 41.68 42.16 55.61 101.9 16.44 70.49 2.35 126.79-9 144.4z"
                fill="#647042" />
            <path
                d="M458.505 198.96c2.68 5.17 9.83 4.84 19.95 5.4 6.16.34 14.65 17.24 17.36 34.5-10.47 1.79-26.37-1.51-33.84-5.9-6.16-3.61-15.19-3.28-24.63-1.9 2.59-30 1.2-52.93-7.88-80.09.63-1.98 1.27-4.04 1.87-6.1 5.81-1.99 10.65-1.64 12.64-.24 3.91 2.76 12.91 7.85 18.78 3.93 5.87-3.91 10.96-7.04 9.78-14.48-1.17-7.43 10.18-8.21 15.26-9 5.09-.78 7.2-10.98 11.3-16.32.43-.56.88-1.09 1.36-1.58 11.69 4.54 22.29 15.99 12.89 28.62-10.68 14.33-32.82 36.97-42.88 38.95-10.06 1.99-14.65 19.05-11.96 24.21z"
                fill="#e48860" />
            <path
                d="M437.345 231.06c-3.15.47-6.35 1.04-9.5 1.63-9.78 1.82-21.54-5.78-34.7-20.7 16.78 2.95 25.2-7.02 33.96-20.15 10.61-15.89-3.34-19.8-1.45-28.41.6-2.76 2.18-7.37 3.81-12.46 9.08 27.16 10.47 50.09 7.88 80.09z"
                fill="#ffae5d" />
            <path
                d="M557.905 253.991c-.28 16.72-8.33 42.82-16.6 59.67.71-15.26 5.34-33.32.98-36.01-5.78-3.56-10.66-13.65-16.14-23.66-.3-.55-.62-1.1-.97-1.65 7.27-9.11 12.96-19.46 12.33-23.48-1.19-7.52-2.57-22.71 4.78-24.5 7.34-1.8 16.07 22.79 15.62 49.63zm-120.56-22.931c-.33 3.79-.72 7.7-1.17 11.75-7.17 1.54-15.63 1.94-29.37-6.6-11.87-7.38-19.45-17.38-23.13-26.94 3.43 1.33 6.58 2.22 9.47 2.72 13.16 14.92 24.92 22.52 34.7 20.7 3.15-.59 6.35-1.16 9.5-1.63z"
                fill="#e48860" />
            <path
                d="M381.415 197.33c4.01 5.46 7.93 10.36 11.73 14.66-2.89-.5-6.04-1.39-9.47-2.72-1.39-3.61-2.23-7.17-2.53-10.49z"
                fill="#647042" />
            <path
                d="M496.655 247.241c-8.16-.94-18.91 7.12-36-3.11-1.99-1.19-3.83-2.04-5.57-2.6-.17-.06-.35-.11-.52-.16a19.33 19.33 0 0 0-6.94-.82.11.11 0 0 0-.08 0c-.23.01-.46.02-.69.05-.16.01-.33.03-.49.05-.42.04-.85.09-1.27.16l-1.04.18c-.03.01-.06.01-.09.02-.38.07-.77.15-1.16.24-.54.11-1.08.24-1.63.37-1.11.26-2.23.55-3.37.82-.54.13-1.08.25-1.63.37.45-4.05.84-7.96 1.17-11.75 9.44-1.38 18.47-1.71 24.63 1.9 7.47 4.39 23.37 7.69 33.84 5.9.45 2.81.74 5.62.84 8.38zm44.65 66.419c-2 4.08-4.02 7.61-5.94 10.34-.62-2.33-1.09-4.51-1.39-6.39-2.35-14.48.39-41.87-9-46.57-3.65-1.82-7.22-4.62-10.43-7.6 3.57-2.93 7.27-6.88 10.63-11.1.35.55.67 1.1.97 1.65 5.48 10.01 10.36 20.1 16.14 23.66 4.36 2.69-.27 20.75-.98 36.01z"
                fill="#c36b62" />
            <path
                d="M525.175 252.34c-3.36 4.22-7.06 8.17-10.63 11.1-5.06-4.69-9.21-9.85-11.32-12.42-2.03-2.47-4.19-3.51-6.57-3.78-.1-2.76-.39-5.57-.84-8.38 1.04-.18 2.02-.41 2.94-.69 9.61-2.96 20.62 4.86 26.42 14.17zm36.34 91.73c-.71 1.36-1.41 2.59-2.11 3.67-9.41 14.59-19.93-8.06-24.04-23.73V324c1.92-2.73 3.94-6.26 5.94-10.34-.23 4.95-.05 9.6.98 13.34 2.72 9.85 9.72 18.08 19.23 17.07z"
                fill="#4c4c4c" />
            <path
                d="M381.379 196.114c4.092-6.465 9.896-10.117 20.07-12.856s9.927-9.99 14.375-18.783c5.084-10.051 12.021-18.165 12.021-18.165s-14.013 10.158-17.335 16.77-6.048 11.155-12.322 13.851c-6.274 2.697-12.561 3.186-14.513 9.009-1.953 5.823-2.296 10.173-2.296 10.173z"
                fill="#cde075" />
            <path
                d="M561.515 344.07c-.71 1.36-1.41 2.59-2.11 3.67-2.62 4.07-5.34 5.24-7.97 4.48 10.08-10.088 21.626-70.205 16.906-116.613-5.741-56.45-32.976-106.219-61.606-132.838v-.01c2.09-.9 4.19-1.32 6.06-1.32 8.66 0 41.68 42.16 55.61 101.9 15.43 66.17 3.96 119.83-6.89 140.73z"
                fill="#9eb256" />
            <path
                d="M553.322 353.443a6.25 6.25 0 0 1-1.294-.137c-9.523-1.988-17.118-25.899-18.68-35.536-.716-4.417-.961-9.915-1.219-15.734-.564-12.692-1.203-27.078-7.241-30.097-9.231-4.616-17.94-15.244-21.659-19.782l-.409-.499c-3.757-4.573-7.977-3.732-13.819-2.568-7.239 1.443-16.247 3.239-28.493-4.101-8.311-4.981-13.846-3.61-20.255-2.021-8.081 2.002-17.24 4.274-33.616-5.907-19.464-12.1-27.82-31.673-26.014-44.754.954-6.911 4.678-11.794 10.216-13.397 10.596-3.067 13.352-7.534 17.167-13.715 1.373-2.224 2.928-4.745 5.014-7.457 11.748-15.272 27.23-17.209 31.891-13.922 1.91 1.346 11.736 7.862 17.652 3.918l.526-.35c5.51-3.666 9.862-6.562 8.824-13.14-.292-1.85.077-3.484 1.096-4.857 2.654-3.576 9.145-4.472 13.441-5.064.564-.078 1.089-.15 1.56-.223 2.699-.415 4.679-4.595 6.595-8.637 1.226-2.587 2.494-5.263 4.063-7.303 4.371-5.683 10.35-7.71 14.488-7.714h.002c9.739 0 42.754 43.348 56.586 102.676 9.167 39.318 8.289 71.931 5.938 92.367-3.036 26.393-9.776 44.577-15.071 52.793-2.211 3.43-4.657 5.16-7.288 5.161zM495.61 246.172c3.177 0 6.087.968 8.755 4.216l.411.501c3.638 4.439 12.157 14.836 21.006 19.261 7.089 3.545 7.727 17.907 8.345 31.797.256 5.76.498 11.201 1.195 15.503 2.026 12.496 9.886 32.389 17.115 33.898 2.232.463 4.417-.93 6.492-4.149 10.147-15.746 25.666-71.571 8.867-143.623-14.06-60.305-46.906-101.126-54.64-101.13-3.662.003-8.975 1.825-12.904 6.933-1.439 1.871-2.66 4.448-3.841 6.94-2.237 4.721-4.35 9.181-8.098 9.758-.48.074-1.015.148-1.59.227-3.964.547-9.954 1.374-12.108 4.275-.697.939-.935 2.036-.727 3.354 1.239 7.845-4.07 11.378-9.691 15.117l-.524.349c-6.826 4.552-16.968-1.87-19.913-3.947-3.638-2.564-17.945-1.061-29.153 13.507-2.023 2.63-3.55 5.104-4.897 7.287-3.898 6.315-6.976 11.304-18.313 14.585-4.815 1.394-7.937 5.567-8.791 11.75-1.718 12.442 6.348 31.133 25.089 42.782 15.659 9.733 24.006 7.665 32.079 5.664 6.555-1.625 12.745-3.159 21.764 2.247 11.584 6.943 20.173 5.232 27.074 3.855 2.468-.492 4.798-.957 7-.957z"
                fill="#670a39" />
            <path
                d="M125.115 425.62c-.38 2.5-1.01 5.31-1.93 7.96-4.35-4.93-8.6-10.5-12.67-16.35 4.95 3.35 9.78 6.07 14.6 8.39z"
                fill="#e48860" />
            <path
                d="M97.845 410.64c1.18 1.81 2.34 3.57 3.49 5.26-1.16-1.69-2.32-3.45-3.49-5.26zm70.62 30.18c-.76 12.6-9.06 16.74-14.11 18.82-4.05 1.67-16.85-1.83-34.16-20 2.68-3.72 4.21-9.4 4.92-14.02 14.05 7.96 30.517 15.377 43.35 15.2z"
                fill="#647042" />
            <path
                d="M133.215 397.94c-5.74 7.32-7.97 15.14-7.64 21.4.08 1.39-.06 3.66-.46 6.28-4.82-2.32-9.389-4.667-14.339-8.016-11.07-15.92-21.031-34.353-27.441-47.474-6.65-13.6-11.84-29.48-15.4-43.84.33-.17.67-.31 1.01-.41 4.06-1.23 8.6 2.01 13.14 9.73 7.83 13.3 17.2 8.6 26.6 11.73 9.4 3.14 30.27 43.27 24.53 50.6z"
                fill="#ffae5d" />
            <path
                d="M166.665 426.39c1.55 5.76 2.04 10.51 1.8 14.43-.69 11.45-7.61 15.91-12.65 18.2-.43-3.13-.15-5.98 1.35-7.75 5.12-6.03-4.72-36.23 1.36-47.79s17.01-14.27 22.9-34.1c13.33 32.71-22.53 28.12-14.76 57.01z"
                fill="#647042" />
            <path
                d="M110.515 417.231c-5.51-3.71-11.16-8.19-17.14-13.75-1.6-2.64-3.22-5.4-4.84-8.28-.42-.74-.85-1.5-1.27-2.26-.13-.22-.25-.45-.38-.68-.44-.79-.88-1.59-1.31-2.4-.89-1.61-1.77-3.26-2.65-4.95-2.24-4.28-4.31-8.48-6.21-12.6l-.66-1.44c-.79-1.72-1.54-3.42-2.26-5.1-.19-.44-.38-.88-.56-1.31a93.215 93.215 0 0 1-1.03-2.47c-.4-.96-.79-1.93-1.17-2.88-.05-.12-.1-.24-.14-.36-.37-.93-.73-1.86-1.08-2.78-.05-.13-.1-.25-.15-.38-.34-.9-.68-1.79-1-2.68l-.15-.42a204.187 204.187 0 0 1-1.77-5.01c-.31-.91-.61-1.82-.9-2.73-.22-.65-.43-1.3-.63-1.95-.2-.63-.39-1.25-.58-1.88-.29-.95-.58-1.9-.85-2.84-.27-.93-.54-1.87-.79-2.79-.23-.84-.45-1.66-.67-2.48 1.69-3.34 3.58-5.51 5.61-6.52 3.56 14.36 8.75 30.24 15.4 43.84 6.41 13.12 16.11 31.18 27.18 47.1z"
                fill="#ffca62" />
            <path
                d="M79.841 279.849c.01.05.804 0 .804 0-10.71-4.24-18.85-7.998-18.32 12.162.2 7.62 2.13 20.23 5.61 34.28-2.03 1.01-3.92 3.18-5.61 6.52-9.06-34.39-5.63-57.56-.53-60.96.34-.23.69-.37 1.05-.42.43-.06.86-.11 1.27-.15.57-.06 1.12-.11 1.66-.15 10.83-.79 12.194 5.635 14.066 8.718z"
                fill="#cde075" />
            <path
                d="M123.185 433.58c-.78 2.24-1.76 4.35-2.99 6.06-1.37-1.44-2.78-2.98-4.2-4.61-.36-.41-.71-.82-1.07-1.24-.33-.38-.65-.76-.98-1.15-.05-.05-.09-.1-.13-.16-.36-.42-.71-.85-1.07-1.28l-.42-.51c-.54-.66-1.08-1.33-1.64-2.03-.42-.54-.85-1.09-1.28-1.64-.37-.48-.75-.97-1.13-1.47-.86-1.13-1.73-2.3-2.61-3.5-.56-.78-1.13-1.57-1.71-2.38-.29-.4-.58-.81-.86-1.22-.57-.82-1.15-1.65-1.74-2.51a.076.076 0 0 1-.02-.04c-.86-1.26-1.73-2.57-2.61-3.9-.31-.49-.64-.99-.96-1.49-.4-.62-.8-1.25-1.21-1.89-1.05-1.66-2.11-3.38-3.18-5.14.37.35.75.69 1.12 1.03.68.63 1.36 1.24 2.04 1.84 1.39 1.23 2.77 2.4 4.13 3.52.85.7 1.68 1.37 2.52 2.02 1.06.84 2.12 1.64 3.17 2.41a107 107 0 0 0 4.1 2.89c.02.01.04.03.06.04 4.07 5.85 8.32 11.42 12.67 16.35z"
                fill="#ffae5d" />
            <path
                d="M162.965 454.231c-2.28 2.32-4.9 3.76-7.15 4.79-.51.22-1 .43-1.46.62-4.05 1.67-16.85-1.83-34.16-20 1.23-1.71 2.21-3.82 2.99-6.06 8.08 9.19 16.47 16.15 24.57 18.63 5.26 1.61 10.4 2.16 15.21 2.02z"
                fill="#9eb256" />
            <path
                d="M459.655 474.62c-6.18 4.26-12.55 8.25-19.11 11.95-4.09-24.182-2.31-60.96-2.31-61.75 0 0 18.44 38.38 21.42 49.8z"
                fill="#670a39" />
            <path
                d="M440.545 487.57a.996.996 0 0 1-.986-.833c-3.442-20.351-2.789-49.611-2.348-61.247.014-.379.023-.608.024-.673a1.001 1.001 0 0 1 1.901-.43c.755 1.571 18.516 38.598 21.486 49.981.106.407-.054.837-.4 1.076a252.64 252.64 0 0 1-19.186 11.998.998.998 0 0 1-.491.129zm-1.451-58.616c-.394 12.831-.664 37.729 2.207 56.037a251.186 251.186 0 0 0 17.202-10.792c-2.78-9.7-14.842-35.583-19.409-45.245zm-286.681 32.075c-4.965 0-13.346-3.493-23.486-12.069-10.813-9.146-27.661-27.6-46.521-63.58-29.063-55.444-29.33-100.171-23.015-111.795 1.062-1.955 2.314-3.012 3.721-3.143 16.082-1.489 18.74 9.442 22.105 23.287 1.717 7.064 3.663 15.072 7.735 22.685 4.521 8.453 15.498 9.94 28.208 11.662 20.143 2.728 45.211 6.124 60.069 37.577 9.63 20.386 2.136 28.066-5.112 35.494-5.983 6.131-11.634 11.922-8.121 24.988 6.32 23.509-4.332 30.912-12.894 34.436-.731.301-1.634.459-2.69.459zM63.297 272.433c-.682.063-1.445.812-2.148 2.106-6.138 11.297-5.685 55.136 23.028 109.912 36.743 70.095 65.938 76.007 70.164 74.27 8.528-3.51 17.568-10.327 11.723-32.067-3.808-14.167 2.51-20.642 8.621-26.905 7.082-7.258 13.771-14.114 4.735-33.243-14.394-30.471-38.866-33.786-58.529-36.449-13.254-1.795-24.7-3.346-29.704-12.7-4.192-7.837-6.17-15.976-7.915-23.156-3.26-13.412-5.614-23.104-19.976-21.768zm139.711 46.656c-9.798 0-19.385-2.401-28.712-7.209a1 1 0 1 1 .916-1.778c21.263 10.959 43.973 8.986 67.499-5.864a1 1 0 1 1 1.067 1.691c-13.892 8.769-27.524 13.159-40.771 13.159z"
                fill="#670a39" />
            <path
                d="M254.19 311.992a.914.914 0 0 1-.116-.007c-9.447-1.094-15.551-8.933-15.551-19.971a1 1 0 0 1 2 0c0 10.109 5.28 17 13.781 17.985a.999.999 0 0 1-.114 1.993z"
                fill="#670a39" />
            <path
                d="M291.271 228.699c-4.079 13.974-10.916 26.034-19.23 35.153-13.233 14.516-19.913-10.837-35.462-15.377-25.318-7.391-47.565-10.326-36.993-46.543 10.573-36.216 39.668-59.583 64.986-52.192s37.271 42.742 26.699 78.958z"
                fill="#82b3fb" />
            <ellipse cx="238.435" cy="214.138" fill="#e7dcdc" rx="68.312" ry="47.756"
                transform="matrix(.28023113 -.95993256 .95993256 .28023113 -33.94 383.01)" />
            <path
                d="M228.947 282.087c-3.367 0-6.693-.468-9.936-1.415-25.807-7.534-38.089-43.511-27.378-80.198 5.17-17.71 14.865-32.963 27.297-42.948 12.536-10.068 26.361-13.592 38.929-9.923 12.567 3.669 22.325 14.078 27.475 29.309 5.107 15.104 5.072 33.179-.097 50.889-5.17 17.71-14.865 32.963-27.297 42.948-9.301 7.47-19.313 11.338-28.993 11.338zm18.986-133.896c-9.231 0-18.814 3.717-27.751 10.895-12.116 9.73-21.573 24.628-26.63 41.949-10.401 35.629 1.271 70.493 26.019 77.718 11.922 3.48 25.104.085 37.116-9.563 12.116-9.731 21.573-24.629 26.63-41.95s5.1-34.967.122-49.688c-4.935-14.595-14.219-24.549-26.141-28.03a33.324 33.324 0 0 0-9.365-1.332z"
                fill="#670a39" />
            <path
                d="M274.14 216.904c-9.222 31.59-33.7 46.506-56.685 45.525-33.031-1.409-33.873-37.712-23.288-68.872 10.587-31.168 42.838-51.914 58.675-46.445 21.746 7.509 30.521 38.202 21.298 69.792z"
                fill="#fff8ea" />
            <path
                d="M228.521 281.741c-3.367 0-6.693-.468-9.936-1.415-25.807-7.534-38.089-43.511-27.378-80.198 10.71-36.688 40.418-60.406 66.226-52.872 25.807 7.534 38.089 43.511 27.378 80.198l-.96-.28.96.28c-5.17 17.71-14.865 32.963-27.297 42.948-9.301 7.47-19.313 11.338-28.993 11.338zm19.042-133.887c-22.229 0-45.32 21.607-54.436 52.835-10.401 35.629 1.271 70.493 26.019 77.718 11.923 3.481 25.104.084 37.116-9.563 12.116-9.731 21.573-24.629 26.63-41.95 10.401-35.628-1.271-70.493-26.019-77.718a33.1 33.1 0 0 0-9.309-1.323z"
                fill="#670a39" />
            <ellipse cx="250.21" cy="221.569" fill="#670a39" rx="49.353" ry="33.832"
                transform="matrix(.28023113 -.95993256 .95993256 .28023113 -32.599 399.661)" />
            <path
                d="M243.007 270.886c-2.327 0-4.638-.318-6.908-.981-18.437-5.382-27.106-31.445-19.325-58.097 3.75-12.846 10.718-23.933 19.618-31.217 9.009-7.373 18.928-9.984 27.929-7.358 18.437 5.382 27.106 31.445 19.325 58.097-6.823 23.371-24.066 39.556-40.639 39.556zm14.328-96.646c-6.521 0-13.319 2.697-19.676 7.899-8.592 7.031-15.327 17.767-18.965 30.229-7.472 25.594.588 50.543 17.966 55.617a22.75 22.75 0 0 0 6.397.908c15.682.002 32.101-15.621 38.67-38.124 7.472-25.594-.588-50.543-17.966-55.617a22.858 22.858 0 0 0-6.426-.913z"
                fill="#670a39" />
            <path
                d="M268.708 260.414c-13.841 17.655-32.242 26.934-49.332 22.563-16.675-4.265-28.205-20.532-32.158-41.879"
                fill="#b5dcfa" />
            <path
                d="M228.363 281.717a34.87 34.87 0 0 1-7.251-.754 1 1 0 0 1 .416-1.956c14.418 3.066 30.681-3.903 43.502-18.642a1 1 0 1 1 1.509 1.313c-11.214 12.892-25.043 20.04-38.176 20.04z"
                fill="#670a39" />
            <ellipse cx="244.792" cy="195.64" fill="#fff8ea" rx="10.745" ry="7.366"
                transform="matrix(.41480441 -.9099106 .9099106 .41480441 -34.764 337.226)" />
            <path
                d="M202.603 250.56c-4.491-.089-8.994.101-13.479.579-4.81.501-9.68-2.145-10.921-6.395-1.24-4.241 2.412-8.64 8.212-9.256 30.957-3.3 62.652 5.104 87.907 23.309 4.734 3.406 5.724 9.046 2.547 12.109-3.183 3.078-8.724 2.964-12.654.144a107.075 107.075 0 0 0-10.909-6.901"
                fill="#b5dcfa" />
            <path
                d="M270.786 274.206c-2.432 0-4.972-.778-7.153-2.344a106.595 106.595 0 0 0-10.809-6.838 1 1 0 1 1 .966-1.751 108.395 108.395 0 0 1 11.011 6.966c3.643 2.613 8.64 2.592 11.375-.052 1.098-1.059 1.637-2.545 1.52-4.187-.168-2.341-1.647-4.731-3.956-6.392-24.903-17.951-56.691-26.378-87.217-23.126-2.83.301-5.299 1.644-6.604 3.591-.915 1.366-1.183 2.925-.755 4.39 1.065 3.65 5.396 6.144 9.857 5.681a108.69 108.69 0 0 1 13.602-.585c.552.011.991.468.98 1.02s-.469.979-1.02.98a105.88 105.88 0 0 0-13.353.574c-5.485.573-10.637-2.486-11.986-7.109-.597-2.043-.238-4.197 1.013-6.063 1.655-2.471 4.591-4.099 8.054-4.467 31.008-3.303 63.301 5.257 88.598 23.492 2.825 2.032 4.568 4.902 4.782 7.871.161 2.243-.593 4.292-2.125 5.769-1.776 1.717-4.217 2.581-6.778 2.581zm22.142-126.73c-.37 0-.726-.207-.9-.562-7.926-16.251-24.744-23.655-44.986-19.804a1 1 0 0 1-.373-1.965c21.182-4.029 38.812 3.781 47.158 20.892a1 1 0 0 1-.898 1.439z"
                fill="#670a39" />
            <path
                d="M151.62 196.577c-4.163 15.439-11.957 28.366-21.26 36.89-9.716 8.904-14.936-12.659-25.52-15.513-20.717-5.586-36.754-10.038-28.244-41.604 8.511-31.566 32.204-52.628 52.921-47.042s30.613 35.703 22.102 67.269z"
                fill="#82b3fb" />
            <ellipse cx="107.213" cy="184.182" fill="#e7dcdc" rx="59.196" ry="38.851"
                transform="matrix(.26031915 -.96552263 .96552263 .26031915 -98.528 239.754)" />
            <path
                d="M98.566 243.228c-2.362 0-4.71-.301-7.023-.925-10.356-2.792-18.418-11.509-22.701-24.545-4.235-12.889-4.272-28.497-.106-43.95 8.64-32.048 32.931-53.469 54.147-47.748 10.356 2.792 18.418 11.509 22.701 24.545 4.235 12.888 4.272 28.497.106 43.95-7.699 28.555-27.822 48.672-47.124 48.672zm17.238-116.099c-18.392 0-37.678 19.534-45.137 47.2-4.066 15.081-4.039 30.282.075 42.805 4.066 12.375 11.638 20.628 21.322 23.239 20.152 5.432 43.342-15.354 51.696-46.337l.966.26-.966-.26c4.066-15.081 4.039-30.283-.075-42.805-4.066-12.375-11.638-20.628-21.322-23.238a25.112 25.112 0 0 0-6.558-.863z"
                fill="#670a39" />
            <path
                d="M134.058 184.182c-7.238 26.845-34.294 45.382-51.913 40.631-17.619-4.75-19.681-23.9-12.444-50.745 7.238-26.845 30.476-51.551 48.095-46.801s23.499 30.069 16.262 56.915z"
                fill="#fff8ea" />
            <path
                d="M98.14 242.881c-2.362 0-4.71-.301-7.023-.925-21.216-5.72-31.448-36.447-22.807-68.495 8.64-32.048 32.931-53.469 54.147-47.748 10.356 2.792 18.418 11.509 22.701 24.545 4.235 12.888 4.272 28.497.106 43.95-7.699 28.555-27.822 48.672-47.125 48.672zm17.239-116.099c-18.392 0-37.678 19.534-45.137 47.2-8.353 30.983 1.245 60.61 21.397 66.043 20.151 5.433 43.342-15.354 51.695-46.337l.966.26-.966-.26c4.066-15.081 4.039-30.283-.075-42.805-4.066-12.375-11.638-20.628-21.322-23.238a25.112 25.112 0 0 0-6.558-.863z"
                fill="#670a39" />
            <ellipse cx="118.752" cy="188.835" fill="#670a39" rx="42.768" ry="26.545"
                transform="matrix(.26031915 -.96552263 .96552263 .26031915 -94.486 254.337)" />
            <path
                d="M112.063 231.714c-1.593 0-3.165-.205-4.705-.62-14.665-3.954-21.484-26.127-15.202-49.429 3.022-11.208 8.584-21.025 15.661-27.645 7.206-6.739 15.135-9.382 22.327-7.443s12.718 8.21 15.56 17.658c2.791 9.281 2.664 20.563-.357 31.771-3.022 11.207-8.584 21.025-15.661 27.645-5.663 5.297-11.775 8.063-17.623 8.063zm13.387-83.755c-5.343 0-10.985 2.582-16.266 7.522-6.809 6.368-12.171 15.853-15.097 26.705-5.995 22.237.192 43.311 13.792 46.978 6.499 1.752 13.759-.725 20.44-6.973 6.809-6.369 12.171-15.853 15.097-26.705l.966.26-.966-.26c2.926-10.853 3.059-21.746.373-30.674-2.635-8.761-7.665-14.551-14.165-16.303a15.998 15.998 0 0 0-4.174-.549z"
                fill="#670a39" />
            <path
                d="M127.922 229.593c-11.218 11.513-24.715 17.075-37.195 13.71-12.295-3.315-21.089-14.617-25.086-29.862"
                fill="#b5dcfa" />
            <path
                d="M98.186 242.889c-.196 0-.39-.002-.585-.006a1.001 1.001 0 0 1-.979-1.021 1.008 1.008 0 0 1 1.021-.979c8.955.178 18.455-4.337 26.762-12.749a1 1 0 1 1 1.423 1.405c-8.518 8.626-18.312 13.35-27.642 13.35z"
                fill="#670a39" />
            <ellipse cx="116.128" cy="167.561" fill="#fff8ea" rx="9.292" ry="6.365"
                transform="matrix(.47078092 -.88225015 .88225015 .47078092 -86.374 191.131)" />
            <path
                d="M78.291 219.737c-3.394.035-6.805.31-10.211.829-3.653.547-7.254-1.591-8.059-5.187-.805-3.589 2.094-7.434 6.499-8.104 23.514-3.584 47.221 2.802 65.751 17.714 3.474 2.79 4.046 7.579 1.549 10.272-2.503 2.706-6.69 2.746-9.574.437a72.685 72.685 0 0 0-8.035-5.62"
                fill="#b5dcfa" />
            <path
                d="M128.908 238.35a8.465 8.465 0 0 1-5.286-1.873 72.068 72.068 0 0 0-7.926-5.544 1 1 0 0 1 1.033-1.713 74.005 74.005 0 0 1 8.145 5.697c2.545 2.038 6.153 1.891 8.213-.337.919-.99 1.364-2.363 1.253-3.866-.138-1.88-1.12-3.683-2.694-4.947-18.2-14.645-41.881-21.026-64.974-17.504-1.998.304-3.753 1.369-4.816 2.923-.85 1.243-1.155 2.654-.859 3.973.663 2.96 3.71 4.897 6.935 4.417a74.058 74.058 0 0 1 10.349-.84 1 1 0 0 1 .02 2 72.09 72.09 0 0 0-10.071.817c-4.26.634-8.295-1.979-9.186-5.957-.419-1.866-.007-3.833 1.159-5.539 1.374-2.011 3.621-3.385 6.166-3.772 23.646-3.605 47.894 2.929 66.529 17.923 2.005 1.61 3.257 3.929 3.436 6.36.151 2.063-.481 3.97-1.781 5.372-1.478 1.598-3.537 2.41-5.646 2.41zm-20.685-120.954a1 1 0 0 1-.695-1.719c8.667-8.366 26.672-10.973 38.651-1.338a1 1 0 1 1-1.254 1.559c-11.169-8.984-27.941-6.568-36.008 1.219a.998.998 0 0 1-.694.281z"
                fill="#670a39" />
            <path
                d="M306.575 412.491c-48 35.1-90.72 56.39-127.86 67.27-14.55 4.26-28.25 6.92-41.08 8.17-2.44.25-4.84.44-7.21.57l-.07.01c-3.44.2-6.81.3-10.11.3-8.23 0-16.05-.61-23.44-1.78-30.5-4.77-53.85-18.84-69.7-37.62-21.06-24.95-29.82-58.67-24.66-94.93 4.05-28.53 16.75-56.82 36.37-81.66 5.48-6.93 11.5-13.59 18.01-19.91 1.27-1.23 2.68-2.21 4.18-2.95-.2 3.42-.33 6.86-.38 10.32-.04 1.49-.05 2.98-.05 4.47 0 2.72.06 5.43.15 8.13-2.93 3.78-4.96 14.71-3.61 30.83-1.34 2-2.62 4.02-3.85 6.06v.01c-9.54 15.78-15.77 32.57-18.15 49.34-3.81 26.83 2.3 51.34 17.21 69.01 17.63 20.89 45.56 30.26 80.76 27.09 1.63-.15 3.28-.32 4.93-.53 36.49-4.43 78.91-22.09 124.14-51.58 8.23-5.36 16.55-11.12 24.95-17.26 7.35-5.38 17.68-3.78 23.05 3.58 5.38 7.36 3.78 17.68-3.58 23.06z"
                fill="#9eb256" />
            <path
                d="M71.971 476.215c-17.129-2.588-29.016-8.024-44.866-26.804-21.06-24.95-29.82-58.67-24.66-94.93 5.18-36.49 24.5-72.57 54.38-101.57 1.27-1.23 2.68-2.21 4.18-2.95-.2 3.42-.33 6.86-.38 10.32-35.742 41.8-42.393 84.326-40.045 116.125 2.996 40.573 23.754 65.775 61.565 80.766 19.352 7.673 6.342 21.539-10.174 19.043z"
                fill="#cde075" />
            <path
                d="M60.725 272.88c-2.93 3.78-4.96 14.71-3.61 30.83-1.34 2-2.62 4.02-3.85 6.06 3.59-15.62-.403-48.512-14.45-36.95 5.48-6.93 11.5-13.59 18.01-19.91 1.27-1.23 2.68-2.21 4.18-2.95-.2 3.42-.33 6.86-.38 10.32-.04 1.49-.05 2.98-.05 4.47 0 2.72.06 5.43.15 8.13z"
                fill="#670a39" />
            <path
                d="M53.265 310.77a1 1 0 0 1-.975-1.224c2.633-11.455 1.065-33.258-5.76-37.48-2.007-1.242-4.323-.743-7.08 1.526a.999.999 0 0 1-1.42-1.392 206.756 206.756 0 0 1 18.098-20.007 17.493 17.493 0 0 1 4.434-3.13 1 1 0 0 1 1.441.955c-.203 3.465-.33 6.922-.378 10.276-.04 1.493-.05 2.974-.05 4.455 0 2.434.049 5.083.149 8.097a1 1 0 0 1-.209.646c-2.663 3.435-4.748 14.085-3.404 30.134a.994.994 0 0 1-.166.64 149.875 149.875 0 0 0-3.824 6.02 1 1 0 0 1-.857.484zm-8.972-41.356c1.338 0 2.439.425 3.29.951 6.89 4.263 8.971 22.039 7.502 34.61.334-.516.67-1.026 1.005-1.53-1.144-14.127.271-26.128 3.625-30.879a240.267 240.267 0 0 1-.139-7.815c0-1.499.01-2.998.05-4.497.04-2.782.135-5.644.281-8.522a15.65 15.65 0 0 0-2.386 1.897 205.922 205.922 0 0 0-14.809 15.976 6.862 6.862 0 0 1 1.581-.19z"
                fill="#670a39" />
            <path
                d="M306.575 412.491c-48 35.1-90.72 56.39-127.86 67.27-14.55 4.26-28.25 6.92-41.08 8.17l-7.21.57-.07.01c42.051-5.513 119.53-38.9 133.36-61.34 6.53-10.6 7.691-21.564-1.56-24.06 8.23-5.36 16.55-11.12 24.95-17.26 7.35-5.38 17.68-3.78 23.05 3.58 5.38 7.36 3.78 17.68-3.58 23.06z"
                fill="#647042" />
            <path
                d="M120.245 489.81c-38.928 0-72.277-14.119-93.904-39.755-21.249-25.174-30.087-59.166-24.886-95.716 5.211-36.709 24.628-72.985 54.674-102.146a17.515 17.515 0 0 1 4.434-3.129 1 1 0 0 1 1.44.956 250.19 250.19 0 0 0-.428 14.731c0 2.434.049 5.083.149 8.097a1 1 0 0 1-.209.646c-2.663 3.435-4.748 14.085-3.404 30.134.019.226-.039.451-.165.64-11.654 17.426-19.206 36.443-21.841 54.995-3.77 26.547 2.262 50.777 16.984 68.224 17.412 20.632 45.043 29.881 79.906 26.739 1.879-.173 3.434-.34 4.893-.526 42.931-5.215 94.323-28.956 148.626-68.655a17.375 17.375 0 0 1 13.018-3.167 17.358 17.358 0 0 1 11.431 6.965c5.695 7.791 3.992 18.763-3.798 24.457-45.229 33.074-88.351 55.758-128.169 67.422-20.605 6.032-40.371 9.09-58.751 9.09zm-60.34-238.078a15.636 15.636 0 0 0-2.385 1.896C27.792 282.481 8.583 318.347 3.434 354.62c-5.12 35.978 3.558 69.412 24.434 94.145 21.241 25.179 54.047 39.045 92.376 39.045 18.19 0 37.767-3.031 58.189-9.009 39.594-11.6 82.509-34.181 127.551-67.118 6.899-5.043 8.408-14.761 3.363-21.663a15.37 15.37 0 0 0-10.123-6.169 15.384 15.384 0 0 0-11.529 2.806c-54.579 39.901-106.296 63.77-149.56 69.025-1.477.188-3.054.358-4.959.533-35.544 3.201-63.764-6.288-81.616-27.441-15.095-17.889-21.287-42.676-17.436-69.795 2.662-18.744 10.256-37.94 21.965-55.535-1.144-14.127.271-26.129 3.625-30.879a240.267 240.267 0 0 1-.139-7.815c0-4.39.111-8.76.33-13.018z"
                fill="#670a39" />
            <path
                d="M444.717 335.31c-.127 7.06-1.716 9.623-5.287 12.425-2.214 1.737-5.45 2.372-9.342 1.865-10.174-1.317-14.309-8.16-17.616-13.67-5.113-8.519-20.641-9.513-31.134-1.329-6.474 5.051-10.992 11.023-12.293 17.786-.901 4.683-.433 10.45 3.398 16.938 7.672 13.005 33.053 9.325 47.128 26.636 12.919 15.889 6.006 27.437-3.119 28.122-7.993.6-16.015-5.587-22.719-9.329-6.783-3.787-27.973-5.065-44.402-1.335-16.058 3.646-45.037 5.305-49.4-13.133-5.51-.042-16.07 2.782-27.172-9.962-1.927-2.224-3.783-7.58-5.068-10.826-8.736-22.073-6.208-63.169 18.973-84.411 14.859-12.528 31.096-7.412 38.213-5.125 6.228-3.6 14.505-3.093 26.35-.935 1.399.255 1.764.239 2.997.905 5.16 2.788 12.855 9.63 12.855 9.63s-.908-.773 4.898-2.132 31.259-8.079 49.014 2.483c17.754 10.572 23.993 21.525 23.728 35.396z"
                fill="#647042" />
            <path
                d="M362.149 322.395c-1.301 16.021-13.415 34.462-25.88 34.503-6.294.02-9.644-7.116-9.167-12.35-8.263 6.655-12.317 11.24-21.884.071 4.378 16.825 4.145 53.465-32.46 45.706-.04-.01.04.01 0 0-1.927-2.224-2.61-5.998-3.891-9.246-10.115-25.643-7.385-64.748 17.796-85.991 14.859-12.528 31.096-7.412 38.213-5.125 6.004-2.174 15.453-3.476 28.084-.411 10.582 2.43 10.388 18.077 9.189 32.843zm79.177 23.941c-2.214 1.737-5.187 3.937-9.079 3.43-10.174-1.317-16.032-6.212-19.081-13.761-3.5-8.665-21.335-9.587-31.829-1.403-6.474 5.051-11.153 11.246-13.262 17.803-.04-.01-.06-.01-.06-.01 1.427-13.315 8.938-28.146 27.593-28.468 15.064-.26 20.447 3.636 23.518 12.25 2.72 7.63 15.696 12.081 21.25 10.322.349-.111.669-.162.949-.163z"
                fill="#9eb256" />
            <path
                d="M305.219 344.619c14.426 6.582 35.621-15.85 24.295-50.736 3.635 3.639 11.607 13.976 9.662 26.503-2.038 13.123-13.126 32.616-24.827 30.696-5.995-.984-9.13-6.462-9.13-6.462z"
                fill="#647042" />
            <path
                d="M335.452 363.946c-2.034 0-3.902-.428-5.536-1.292-5.33-2.815-6.893-6.384-7.266-8.882-.513-3.438.854-7.058 3.748-9.933a.999.999 0 1 1 1.409 1.419c-2.438 2.422-3.597 5.417-3.18 8.219.437 2.928 2.588 5.49 6.222 7.409 3.32 1.754 8.125 1.276 13.184-1.311 9.436-4.823 21.544-18.196 24.612-40.007 1.394-9.911-1.371-18.76-7.586-24.279-7.87-6.988-20.668-8.4-37.011-4.083a.999.999 0 1 1-.511-1.933c21.503-5.681 32.995-.677 38.849 4.521 6.725 5.972 9.728 15.467 8.238 26.053-3.176 22.572-15.82 36.468-25.682 41.51-3.366 1.721-6.597 2.59-9.492 2.59z"
                fill="#670a39" />
            <path
                d="M415.237 424.794c-5.806 0-12.247-3.489-17.317-6.706-11.851-7.516-29.668-7.413-42.389-4.811-21.948 4.489-40.034 3.629-49.623-2.358a1 1 0 0 1 1.059-1.696c9.024 5.634 27.028 6.417 48.163 2.095 13.103-2.682 31.507-2.753 43.861 5.081 11.933 7.569 19.294 8.416 23.87 2.75 2.021-2.502 3.505-7.3 1.61-13.263-1.893-5.958-8.663-16.97-32.731-23.79-16.998-4.816-22.308-13.581-23.771-20.085-2.007-8.927 2-19.065 10.457-26.458 6.941-6.067 17.21-9.075 24.972-7.314 5.725 1.299 10.049 5.002 12.505 10.711 2.437 5.664 10.505 10.853 18.631 9.547 3.186-.511 5.575-1.997 7.102-4.416 3.024-4.792 2.327-12.542.666-18.198-2.939-10.006-10.719-18.939-21.347-24.509-10.504-5.504-28.48-10.259-54.469-1.654a1 1 0 1 1-.629-1.899c26.655-8.826 45.179-3.902 56.026 1.781 11.105 5.82 19.247 15.193 22.338 25.717 1.784 6.075 2.486 14.474-.894 19.829-1.846 2.925-4.698 4.716-8.476 5.322-8.34 1.34-17.664-3.476-20.785-10.732-2.224-5.169-5.962-8.383-11.11-9.551-7.178-1.627-16.724 1.197-23.213 6.87-7.784 6.804-11.639 16.426-9.822 24.513 1.343 5.975 6.313 14.052 22.365 18.6 24.968 7.074 32.077 18.767 34.092 25.108 2.135 6.718.388 12.218-1.96 15.125-2.568 3.18-5.764 4.388-9.179 4.388z"
                fill="#670a39" />
            <path
                d="M291.887 316.536c7.32 4.77 10.194 6.08 12.115 12.711 2.644-6.509 6.333-11.419 6.333-11.419l-4.105-1.914-2.426.582s-5.803 2.335-11.917.039z"
                fill="#647042" />
            <path
                d="M289.031 401.321c-.021 0-.041 0-.062-.002-7.563-.463-18.33-4.006-24.482-29.309-5.102-20.984-.778-47.722 10.515-65.021 7.121-10.909 16.656-17.699 27.576-19.637 18.008-3.199 29.802 3.154 36.06 19.414 5.012 13.024-1.514 29.086-10.55 38.221-5.749 5.813-11.911 8.266-16.481 6.563-3.769-1.404-6.713-4.444-8.079-8.343-1.611-4.598-1.886-12.822 5.951-25.893a1 1 0 1 1 1.715 1.029c-7.439 12.405-7.249 20.009-5.779 24.203 1.169 3.336 3.68 5.935 6.89 7.13 3.812 1.418 9.181-.859 14.361-6.095 8.585-8.679 14.813-23.864 10.106-36.096-5.94-15.436-16.695-21.205-33.844-18.164-10.362 1.839-19.439 8.327-26.251 18.761-11.014 16.873-15.227 42.966-10.246 63.455 5.774 23.75 15.143 27.325 22.661 27.786a1 1 0 0 1-.06 1.998z"
                fill="#670a39" />
            <path
                d="M312.067 318.917c-4.584 0-7.586-1.593-9.093-7.539a1 1 0 1 1 1.939-.491c1.425 5.624 4.003 6.377 9.244 5.932a1 1 0 1 1 .169 1.993c-.791.067-1.544.105-2.258.105z"
                fill="#670a39" />
            <path
                d="M298.4 318.859c-2.978 0-6.006-.989-8.13-2.937a1 1 0 0 1 1.352-1.474c3.309 3.034 9.509 3.241 12.758.424a1.001 1.001 0 0 1 1.31 1.512c-1.912 1.657-4.58 2.475-7.289 2.475zM74.269 494.171c-.062 0-.125-.006-.189-.018-23.255-4.45-44.025-17.9-58.484-37.872a.999.999 0 1 1 1.62-1.172c14.159 19.558 34.487 32.727 57.24 37.08a1 1 0 0 1-.187 1.982z"
                fill="#670a39" />
            <path
                d="M582.985 559.32c-.39.99-.81 1.96-1.25 2.91-2.12 4.56-4.79 8.63-8.03 12.18-8 8.77-18.59 13.31-30.37 13.31-5.52 0-11.31-1-17.21-3.03-20.82-7.15-40.94-26.24-56.67-53.75-3.92-6.85-7.51-14.13-10.76-21.81-.36-.85-.72-1.71-1.07-2.57q-.01-.01 0-.01c-5.75-14.04-10.38-29.34-13.82-45.61-2.9-13.71-4.95-28.12-6.11-43.05-.71-9.09 6.32-11.4 15.41-12.11 9.08-.72 16.78.47 17.49 9.55 3.8 48.89 17.06 80.95 27.51 99.23 11.41 19.96 25.89 34.51 38.73 38.92 8.6 2.95 11.52-.25 12.48-1.3 6.95-7.62 7.92-44.47-18.48-103.06-3.74-8.31 3.7-9.77 12.01-13.51 8.31-3.75 18.08-.05 21.82 8.26 10.93 24.26 17.99 46.24 21.17 65.38.17 1.04.33 2.08.48 3.1v.03c2.72 18.62 1.62 34.44-3.33 46.94z"
                fill="#647042" />
            <path
                d="M582.985 559.32c-.39.99-.81 1.96-1.25 2.91-2.12 4.56-4.79 8.63-8.03 12.18-8 8.77-18.59 13.31-30.37 13.31-5.52 0-11.31-1-17.21-3.03-20.82-7.15-40.94-26.24-56.67-53.75-3.92-6.85-7.51-14.13-10.76-21.81-.36-.85-.72-1.71-1.07-2.57q-.01-.01 0-.01c-5.75-14.04-10.38-29.34-13.82-45.61 26.659 78.144 66.236 122.117 102.45 120.4 32.907-1.56 40.97-46.24 39.58-72.03v-.06c.17 1.04.33 2.08.48 3.1v.03c2.72 18.62 1.62 34.44-3.33 46.94z"
                fill="#9eb256" />
            <path
                d="M543.335 588.721c-5.687 0-11.587-1.038-17.535-3.084-21.041-7.226-41.36-26.475-57.213-54.199-3.918-6.847-7.556-14.221-10.813-21.917-.357-.841-.713-1.694-1.061-2.546a.929.929 0 0 1-.05-.133c-5.735-14.02-10.39-29.393-13.837-45.693-2.909-13.753-4.971-28.281-6.128-43.179-.357-4.57 1.152-7.974 4.486-10.116 2.626-1.688 6.278-2.634 11.843-3.068 7.437-.59 12.087.285 15.076 2.837 2.056 1.756 3.23 4.324 3.489 7.631 3.786 48.704 16.979 80.616 27.381 98.812 11.293 19.755 25.568 34.136 38.187 38.47 7.974 2.736 10.565-.097 11.416-1.027 5.982-6.559 9.105-42.298-20.572-105.782-1.082-2.314-1.267-4.027-.584-5.392 1.061-2.118 3.835-2.694 7.347-3.423 2.392-.497 5.104-1.059 7.667-2.213a17.376 17.376 0 0 1 13.389-.415 17.368 17.368 0 0 1 9.753 9.177c11.478 25.487 18.788 48.617 21.728 68.746a.734.734 0 0 1 .009.092c2.742 18.825 1.599 34.768-3.398 47.389a55.428 55.428 0 0 1-1.273 2.964c-2.17 4.667-4.928 8.85-8.199 12.434-8.137 8.92-18.895 13.636-31.109 13.636zm-84.755-82.466c.339.832.687 1.664 1.036 2.486 3.226 7.624 6.828 14.925 10.707 21.704 15.612 27.303 35.545 46.232 56.127 53.301 5.739 1.975 11.42 2.976 16.885 2.976 11.637 0 21.883-4.49 29.631-12.984 3.133-3.434 5.779-7.447 7.862-11.928.45-.973.863-1.934 1.226-2.855 4.873-12.306 5.973-27.927 3.27-46.429a.734.734 0 0 1-.009-.092c-2.918-19.931-10.173-42.86-21.563-68.151a15.387 15.387 0 0 0-8.638-8.128 15.39 15.39 0 0 0-11.859.369c-2.764 1.244-5.59 1.831-8.083 2.348-2.864.595-5.338 1.108-5.965 2.36-.377.752-.173 1.98.607 3.649 30.396 65.021 26.761 100.824 20.238 107.975-1.073 1.173-4.328 4.733-13.543 1.572-13.065-4.487-27.747-19.205-39.274-39.37-10.503-18.373-23.825-50.576-27.639-99.648-.219-2.798-1.133-4.848-2.794-6.266-2.518-2.15-6.846-2.902-13.62-2.364-5.148.402-8.617 1.278-10.918 2.757-2.742 1.762-3.877 4.392-3.574 8.278 1.151 14.812 3.2 29.252 6.091 42.92 3.429 16.218 8.061 31.505 13.767 45.438.011.027.021.055.03.083zm87.828 96.263c-7.542 0-15.794-1.487-24.557-4.488a1 1 0 0 1 .648-1.893c12.849 4.4 36.78 9.391 52.693-6.616a1 1 0 1 1 1.418 1.41c-7.642 7.687-17.992 11.586-30.202 11.586z"
                fill="#670a39" />
            <path
                d="M603.254 381.005c.009 41.764-20.781 57.437-30.961 63.298-2.741 1.578-6.371 1.289-9.795.92-.02.001-.051-.007-.071-.006-9.549-1.046-17.887-5.565-17.887-5.565-10.17 10.463-35.612 12.432-60.883-6.624-18.624-14.044-25.935-10.567-37.083-11.211-8.928-.515-17.309 3.909-20.124-6.702-2.9-10.927 10.403-24.968 32.532-23.362 17.616 1.279 31.294 4.422 38.697-13.08.313-.741 1.008-3.47 1.178-4.333 3.25-16.509-3.582-32.586-20.865-28.981-8.971 6.444-18.329 17.472-29.667 8.56-1.306-1.022-2.81-4.049-3.279-5.541-2.378-7.554 4.009-26.552 23.084-33.192 24.257-8.436 46.685 3.23 59.456 16.512 9.857-10.327 27.877-13.44 39.337-5.806 7.827 5.203 5.981 1.91 8.622 4.304 1.231 1.117 2.41 4.274 4.089 4.586 8.13 1.491 23.613 10.37 23.621 46.224z"
                fill="#647042" />
            <path
                d="M536.765 400.488c-3.915 0-7.655-1.933-10.913-5.666-7.646-8.759-12.738-28.691-5.849-51.754 2.988-10.002 10.714-17.775 20.669-20.791 12.606-3.82 27.29.495 41.347 12.148a1 1 0 0 1-1.276 1.54c-13.523-11.211-27.547-15.393-39.49-11.774-9.171 2.778-16.579 10.231-19.332 19.449-6.672 22.336-1.857 41.507 5.44 49.867 3.302 3.783 7.099 5.464 10.978 4.857 9.353-1.459 9.048-10.751 8.846-16.899-.037-1.134-.069-2.114-.031-2.911a1.004 1.004 0 0 1 1.047-.951c.552.027.977.496.951 1.047-.035.716-.004 1.658.032 2.749.198 6.015.565 17.21-10.537 18.942-.63.098-1.257.147-1.88.147z"
                fill="#670a39" />
            <path
                d="M501.2 354.984c5.931 18.219-2.884 21.421-2.884 21.421l-.638 2.268c.25-.764 1.078-3.46 1.178-4.333 2.506-21.9-7.327-32.155-25.563-26.882.594 4.795-15.356 14.366-24.929 7.194-1.327-.994-2.594-4.135-3.279-5.541 10.594 6.815 20.678 2.208 31.595-5.787 7.631-1.423 19.84-2.72 24.522 11.661zm102.093 26.754c-.92 38.675-19.833 57.765-31.866 62.359-2.954 1.128-9.642 1.424-13.066 1.055 7.573.229 11.217-2.767 21.134-12.815 7.627-7.728 18.912-23.043 18.353-53.269-.393-21.303-2.561-38.081-24.627-45.888l3.561.874c1.231 1.117 3.553.796 5.232 1.108 8.13 1.491 22.085 12.696 21.28 46.576z"
                fill="#9eb256" />
            <path
                d="M521.138 448.878c-12.687 0-27.517-6.101-40.17-16.953-11.459-9.828-25.041-8.996-35.955-8.328-8.148.498-14.585.893-17.666-3.317-3.099-4.233-2.958-10.498.36-15.96 2.484-4.091 12.874-17.091 42.243-12.571 13.569 2.085 20.505-3.163 23.935-7.934 5.565-7.741 6.033-20.273 1.112-29.799-2.161-4.184-6.037-6.86-10.635-7.342-4.672-.487-9.318 1.34-12.129 4.775-5.599 6.844-18.422 8.928-24.501 3.979-7.498-6.102-3.292-18.964.375-25.601 5.336-9.658 17.276-16.674 31.161-18.311 17.724-2.091 35.391 4.938 48.469 19.278a1 1 0 0 1-1.478 1.348c-12.639-13.858-29.681-20.654-46.757-18.639-13.256 1.563-24.615 8.188-29.645 17.292-3.135 5.675-7.351 17.803-.863 23.083 5.132 4.175 16.89 2.173 21.691-3.695 3.232-3.95 8.552-6.058 13.885-5.497 5.279.553 9.727 3.62 12.203 8.413 5.247 10.157 4.715 23.567-1.265 31.885-3.756 5.225-11.293 10.985-25.863 8.743-28.146-4.33-37.908 7.81-40.23 11.633-2.896 4.769-3.075 10.163-.455 13.741 2.436 3.329 8.391 2.964 15.93 2.502 11.274-.69 25.306-1.55 37.38 8.806 15.568 13.353 34.418 19.316 48.023 15.192a1 1 0 1 1 .58 1.914c-3.031.918-6.305 1.365-9.735 1.365z"
                fill="#670a39" />
            <path
                d="M471.459 351.814a1 1 0 0 1-.786-1.617c.454-.579.942-1.162 1.455-1.775 2.67-3.188 5.993-7.155 8.533-15.674a1 1 0 1 1 1.916.571c-2.658 8.915-6.128 13.058-8.916 16.387-.499.596-.974 1.162-1.415 1.725a1 1 0 0 1-.788.383zm91.791 94.916c-5.059 0-9.479-1.837-13.067-4.194a1 1 0 1 1 1.098-1.672c11.864 7.79 24.04 3.941 36.189-11.439 11.839-14.989 17.447-43.299 13.044-65.851-2.361-12.094-7.419-20.89-14.242-24.766-7.154-4.065-13.748-5.205-19.601-3.388-5.673 1.761-10.455 6.367-13.831 13.319-6.672 13.74-5.276 31.295-.071 40.33 1.571 2.727 4.278 6.039 8.257 6.332 5.775.422 10.925-1.231 15.468-25.907.804-4.364 3.544-7.417 6.515-7.234 1.031.06 4.431.775 4.878 7.484a1 1 0 1 1-1.995.133c-.225-3.373-1.373-5.527-2.998-5.621-1.662-.073-3.765 1.973-4.432 5.6-4.403 23.914-9.578 28.14-17.582 27.539-3.841-.283-7.244-2.816-9.843-7.327-5.464-9.486-6.957-27.866.005-42.203 3.623-7.461 8.823-12.425 15.037-14.354 6.402-1.988 13.529-.791 21.182 3.558 7.444 4.23 12.706 13.263 15.217 26.122 4.503 23.066-1.274 52.074-13.437 67.474-9.559 12.103-18.362 16.065-25.789 16.066zm51.265-65.159a.999.999 0 0 1-.989-1.153c2.376-15.371-3.06-37.88-16.27-48.942a1.001 1.001 0 0 1 1.284-1.534c13.751 11.515 19.424 34.862 16.963 50.781a1 1 0 0 1-.987.847z"
                fill="#670a39" />
        </svg>
    </g>
</svg>